<?xml version="1.0" encoding="utf-8" standalone="no"?>
<!DOCTYPE svg PUBLIC "-//W3C//DTD SVG 1.1//EN"
  "http://www.w3.org/Graphics/SVG/1.1/DTD/svg11.dtd">
<svg xmlns:xlink="http://www.w3.org/1999/xlink" width="720pt" height="504pt" viewBox="0 0 720 504" xmlns="http://www.w3.org/2000/svg" version="1.1">
 <metadata>
  <rdf:RDF xmlns:dc="http://purl.org/dc/elements/1.1/" xmlns:cc="http://creativecommons.org/ns#" xmlns:rdf="http://www.w3.org/1999/02/22-rdf-syntax-ns#">
   <cc:Work>
    <dc:type rdf:resource="http://purl.org/dc/dcmitype/StillImage"/>
    <dc:date>2026-03-24T21:13:11.201008</dc:date>
    <dc:format>image/svg+xml</dc:format>
    <dc:creator>
     <cc:Agent>
      <dc:title>Matplotlib v3.10.7, https://matplotlib.org/</dc:title>
     </cc:Agent>
    </dc:creator>
   </cc:Work>
  </rdf:RDF>
 </metadata>
 <defs>
  <style type="text/css">*{stroke-linejoin: round; stroke-linecap: butt}</style>
 </defs>
 <g id="figure_1">
  <g id="patch_1">
   <path d="M 0 504 
L 720 504 
L 720 0 
L 0 0 
z
" style="fill: #ffffff"/>
  </g>
  <g id="patch_2">
   <path d="M 0 504 
L 720 504 
L 720 0 
L 0 0 
L 0 504 
z
" style="fill: none; stroke: #ffffff; stroke-linejoin: miter"/>
  </g>
  <g id="axes_1">
   <g id="patch_3">
    <path d="M 81.066188 466.319531 
L 608.489219 466.319531 
L 608.489219 26.9235 
L 81.066188 26.9235 
z
" style="fill: #ffffff"/>
   </g>
   <g id="matplotlib.axis_1">
    <g id="xtick_1">
     <g id="line2d_1">
      <path d="M 105.039962 466.319531 
L 105.039962 26.9235 
" clip-path="url(#p79fe3d44c3)" style="fill: none; stroke: #e5e5e5; stroke-linecap: square"/>
     </g>
     <g id="line2d_2">
      <path d="M 105.039962 466.319531 
" style="fill: none; stroke: #333333; stroke-width: 1.5; stroke-linecap: square"/>
      <defs>
       <path id="m73f4d6969b" d="M 0 0 
L 0 2.75 
" style="stroke: #333333"/>
      </defs>
      <g>
       <use xlink:href="#m73f4d6969b" x="105.039962" y="466.319531" style="fill: #333333; stroke: #333333"/>
      </g>
     </g>
     <g id="text_1">
      <text style="font-size: 8.8px; font-family: 'Helvetica', 'DejaVu Sans', 'Avant Garde', 'Computer Modern Sans serif', 'Arial', sans-serif; text-anchor: middle; fill: #4d4d4d" x="105.039962" y="477.582156" transform="rotate(-0 105.039962 477.582156)">0.00</text>
     </g>
    </g>
    <g id="xtick_2">
     <g id="line2d_3">
      <path d="M 224.908832 466.319531 
L 224.908832 26.9235 
" clip-path="url(#p79fe3d44c3)" style="fill: none; stroke: #e5e5e5; stroke-linecap: square"/>
     </g>
     <g id="line2d_4">
      <path d="M 224.908832 466.319531 
" style="fill: none; stroke: #333333; stroke-width: 1.5; stroke-linecap: square"/>
      <g>
       <use xlink:href="#m73f4d6969b" x="224.908832" y="466.319531" style="fill: #333333; stroke: #333333"/>
      </g>
     </g>
     <g id="text_2">
      <text style="font-size: 8.8px; font-family: 'Helvetica', 'DejaVu Sans', 'Avant Garde', 'Computer Modern Sans serif', 'Arial', sans-serif; text-anchor: middle; fill: #4d4d4d" x="224.908832" y="477.582156" transform="rotate(-0 224.908832 477.582156)">0.25</text>
     </g>
    </g>
    <g id="xtick_3">
     <g id="line2d_5">
      <path d="M 344.777703 466.319531 
L 344.777703 26.9235 
" clip-path="url(#p79fe3d44c3)" style="fill: none; stroke: #e5e5e5; stroke-linecap: square"/>
     </g>
     <g id="line2d_6">
      <path d="M 344.777703 466.319531 
" style="fill: none; stroke: #333333; stroke-width: 1.5; stroke-linecap: square"/>
      <g>
       <use xlink:href="#m73f4d6969b" x="344.777703" y="466.319531" style="fill: #333333; stroke: #333333"/>
      </g>
     </g>
     <g id="text_3">
      <text style="font-size: 8.8px; font-family: 'Helvetica', 'DejaVu Sans', 'Avant Garde', 'Computer Modern Sans serif', 'Arial', sans-serif; text-anchor: middle; fill: #4d4d4d" x="344.777703" y="477.582156" transform="rotate(-0 344.777703 477.582156)">0.50</text>
     </g>
    </g>
    <g id="xtick_4">
     <g id="line2d_7">
      <path d="M 464.646574 466.319531 
L 464.646574 26.9235 
" clip-path="url(#p79fe3d44c3)" style="fill: none; stroke: #e5e5e5; stroke-linecap: square"/>
     </g>
     <g id="line2d_8">
      <path d="M 464.646574 466.319531 
" style="fill: none; stroke: #333333; stroke-width: 1.5; stroke-linecap: square"/>
      <g>
       <use xlink:href="#m73f4d6969b" x="464.646574" y="466.319531" style="fill: #333333; stroke: #333333"/>
      </g>
     </g>
     <g id="text_4">
      <text style="font-size: 8.8px; font-family: 'Helvetica', 'DejaVu Sans', 'Avant Garde', 'Computer Modern Sans serif', 'Arial', sans-serif; text-anchor: middle; fill: #4d4d4d" x="464.646574" y="477.582156" transform="rotate(-0 464.646574 477.582156)">0.75</text>
     </g>
    </g>
    <g id="xtick_5">
     <g id="line2d_9">
      <path d="M 584.515445 466.319531 
L 584.515445 26.9235 
" clip-path="url(#p79fe3d44c3)" style="fill: none; stroke: #e5e5e5; stroke-linecap: square"/>
     </g>
     <g id="line2d_10">
      <path d="M 584.515445 466.319531 
" style="fill: none; stroke: #333333; stroke-width: 1.5; stroke-linecap: square"/>
      <g>
       <use xlink:href="#m73f4d6969b" x="584.515445" y="466.319531" style="fill: #333333; stroke: #333333"/>
      </g>
     </g>
     <g id="text_5">
      <text style="font-size: 8.8px; font-family: 'Helvetica', 'DejaVu Sans', 'Avant Garde', 'Computer Modern Sans serif', 'Arial', sans-serif; text-anchor: middle; fill: #4d4d4d" x="584.515445" y="477.582156" transform="rotate(-0 584.515445 477.582156)">1.00</text>
     </g>
    </g>
    <g id="xtick_6">
     <g id="line2d_11">
      <path d="M 164.974397 466.319531 
L 164.974397 26.9235 
" clip-path="url(#p79fe3d44c3)" style="fill: none; stroke: #fafafa; stroke-width: 0.5; stroke-linecap: square"/>
     </g>
    </g>
    <g id="xtick_7">
     <g id="line2d_12">
      <path d="M 284.843268 466.319531 
L 284.843268 26.9235 
" clip-path="url(#p79fe3d44c3)" style="fill: none; stroke: #fafafa; stroke-width: 0.5; stroke-linecap: square"/>
     </g>
    </g>
    <g id="xtick_8">
     <g id="line2d_13">
      <path d="M 404.712138 466.319531 
L 404.712138 26.9235 
" clip-path="url(#p79fe3d44c3)" style="fill: none; stroke: #fafafa; stroke-width: 0.5; stroke-linecap: square"/>
     </g>
    </g>
    <g id="xtick_9">
     <g id="line2d_14">
      <path d="M 524.581009 466.319531 
L 524.581009 26.9235 
" clip-path="url(#p79fe3d44c3)" style="fill: none; stroke: #fafafa; stroke-width: 0.5; stroke-linecap: square"/>
     </g>
    </g>
   </g>
   <g id="matplotlib.axis_2">
    <g id="ytick_1">
     <g id="line2d_15">
      <path d="M 81.066188 415.619989 
L 608.489219 415.619989 
" clip-path="url(#p79fe3d44c3)" style="fill: none; stroke: #e5e5e5; stroke-linecap: square"/>
     </g>
     <g id="line2d_16">
      <path d="M 81.066188 415.619989 
" style="fill: none; stroke: #333333; stroke-width: 1.5; stroke-linecap: square"/>
      <defs>
       <path id="m6ad05f2507" d="M 0 0 
L -2.75 0 
" style="stroke: #333333"/>
      </defs>
      <g>
       <use xlink:href="#m6ad05f2507" x="81.066188" y="415.619989" style="fill: #333333; stroke: #333333"/>
      </g>
     </g>
     <g id="text_6">
      <text style="font-size: 8.8px; font-family: 'Helvetica', 'DejaVu Sans', 'Avant Garde', 'Computer Modern Sans serif', 'Arial', sans-serif; text-anchor: start; fill: #4d4d4d" x="53.128938" y="418.776302" transform="rotate(-0 53.128938 418.776302)">Bronx</text>
     </g>
    </g>
    <g id="ytick_2">
     <g id="line2d_17">
      <path d="M 81.066188 331.120752 
L 608.489219 331.120752 
" clip-path="url(#p79fe3d44c3)" style="fill: none; stroke: #e5e5e5; stroke-linecap: square"/>
     </g>
     <g id="line2d_18">
      <path d="M 81.066188 331.120752 
" style="fill: none; stroke: #333333; stroke-width: 1.5; stroke-linecap: square"/>
      <g>
       <use xlink:href="#m6ad05f2507" x="81.066188" y="331.120752" style="fill: #333333; stroke: #333333"/>
      </g>
     </g>
     <g id="text_7">
      <text style="font-size: 8.8px; font-family: 'Helvetica', 'DejaVu Sans', 'Avant Garde', 'Computer Modern Sans serif', 'Arial', sans-serif; text-anchor: start; fill: #4d4d4d" x="41.880063" y="334.277065" transform="rotate(-0 41.880063 334.277065)">Brooklyn</text>
     </g>
    </g>
    <g id="ytick_3">
     <g id="line2d_19">
      <path d="M 81.066188 246.621516 
L 608.489219 246.621516 
" clip-path="url(#p79fe3d44c3)" style="fill: none; stroke: #e5e5e5; stroke-linecap: square"/>
     </g>
     <g id="line2d_20">
      <path d="M 81.066188 246.621516 
" style="fill: none; stroke: #333333; stroke-width: 1.5; stroke-linecap: square"/>
      <g>
       <use xlink:href="#m6ad05f2507" x="81.066188" y="246.621516" style="fill: #333333; stroke: #333333"/>
      </g>
     </g>
     <g id="text_8">
      <text style="font-size: 8.8px; font-family: 'Helvetica', 'DejaVu Sans', 'Avant Garde', 'Computer Modern Sans serif', 'Arial', sans-serif; text-anchor: start; fill: #4d4d4d" x="34.534813" y="249.777828" transform="rotate(-0 34.534813 249.777828)">Manhattan</text>
     </g>
    </g>
    <g id="ytick_4">
     <g id="line2d_21">
      <path d="M 81.066188 162.122279 
L 608.489219 162.122279 
" clip-path="url(#p79fe3d44c3)" style="fill: none; stroke: #e5e5e5; stroke-linecap: square"/>
     </g>
     <g id="line2d_22">
      <path d="M 81.066188 162.122279 
" style="fill: none; stroke: #333333; stroke-width: 1.5; stroke-linecap: square"/>
      <g>
       <use xlink:href="#m6ad05f2507" x="81.066188" y="162.122279" style="fill: #333333; stroke: #333333"/>
      </g>
     </g>
     <g id="text_9">
      <text style="font-size: 8.8px; font-family: 'Helvetica', 'DejaVu Sans', 'Avant Garde', 'Computer Modern Sans serif', 'Arial', sans-serif; text-anchor: start; fill: #4d4d4d" x="45.296938" y="165.278591" transform="rotate(-0 45.296938 165.278591)">Queens</text>
     </g>
    </g>
    <g id="ytick_5">
     <g id="line2d_23">
      <path d="M 81.066188 77.623042 
L 608.489219 77.623042 
" clip-path="url(#p79fe3d44c3)" style="fill: none; stroke: #e5e5e5; stroke-linecap: square"/>
     </g>
     <g id="line2d_24">
      <path d="M 81.066188 77.623042 
" style="fill: none; stroke: #333333; stroke-width: 1.5; stroke-linecap: square"/>
      <g>
       <use xlink:href="#m6ad05f2507" x="81.066188" y="77.623042" style="fill: #333333; stroke: #333333"/>
      </g>
     </g>
     <g id="text_10">
      <text style="font-size: 8.8px; font-family: 'Helvetica', 'DejaVu Sans', 'Avant Garde', 'Computer Modern Sans serif', 'Arial', sans-serif; text-anchor: start; fill: #4d4d4d" x="24.750313" y="80.779355" transform="rotate(-0 24.750313 80.779355)">Staten Island</text>
     </g>
    </g>
   </g>
   <g id="PolyCollection_1">
    <path d="M 105.039962 453.644646 
L 105.039962 377.595333 
L 105.838588 377.595333 
L 105.838588 453.644646 
z
" clip-path="url(#p79fe3d44c3)" style="fill: #7f7f7f"/>
    <path d="M 105.838588 453.644646 
L 105.838588 377.595333 
L 107.835155 377.595333 
L 107.835155 453.644646 
z
" clip-path="url(#p79fe3d44c3)" style="fill: #7f7f7f"/>
    <path d="M 107.835155 453.644646 
L 107.835155 377.595333 
L 229.825378 377.595333 
L 229.825378 453.644646 
z
" clip-path="url(#p79fe3d44c3)" style="fill: #00bfc4"/>
    <path d="M 229.825378 453.644646 
L 229.825378 377.595333 
L 229.925206 377.595333 
L 229.925206 453.644646 
z
" clip-path="url(#p79fe3d44c3)" style="fill: #7f7f7f"/>
    <path d="M 229.925206 453.644646 
L 229.925206 377.595333 
L 258.575938 377.595333 
L 258.575938 453.644646 
z
" clip-path="url(#p79fe3d44c3)" style="fill: #7f7f7f"/>
    <path d="M 258.575938 453.644646 
L 258.575938 377.595333 
L 258.975251 377.595333 
L 258.975251 453.644646 
z
" clip-path="url(#p79fe3d44c3)" style="fill: #7f7f7f"/>
    <path d="M 258.975251 453.644646 
L 258.975251 377.595333 
L 264.865123 377.595333 
L 264.865123 453.644646 
z
" clip-path="url(#p79fe3d44c3)" style="fill: #7f7f7f"/>
    <path d="M 264.865123 453.644646 
L 264.865123 377.595333 
L 308.490104 377.595333 
L 308.490104 453.644646 
z
" clip-path="url(#p79fe3d44c3)" style="fill: #7f7f7f"/>
    <path d="M 308.490104 453.644646 
L 308.490104 377.595333 
L 311.484954 377.595333 
L 311.484954 453.644646 
z
" clip-path="url(#p79fe3d44c3)" style="fill: #7f7f7f"/>
    <path d="M 311.484954 453.644646 
L 311.484954 377.595333 
L 311.684611 377.595333 
L 311.684611 453.644646 
z
" clip-path="url(#p79fe3d44c3)" style="fill: #7f7f7f"/>
    <path d="M 311.684611 453.644646 
L 311.684611 377.595333 
L 318.672594 377.595333 
L 318.672594 453.644646 
z
" clip-path="url(#p79fe3d44c3)" style="fill: #7f7f7f"/>
    <path d="M 318.672594 453.644646 
L 318.672594 377.595333 
L 323.763839 377.595333 
L 323.763839 453.644646 
z
" clip-path="url(#p79fe3d44c3)" style="fill: #7f7f7f"/>
    <path d="M 323.763839 453.644646 
L 323.763839 377.595333 
L 324.662294 377.595333 
L 324.662294 453.644646 
z
" clip-path="url(#p79fe3d44c3)" style="fill: #7f7f7f"/>
    <path d="M 324.662294 453.644646 
L 324.662294 377.595333 
L 325.760406 377.595333 
L 325.760406 453.644646 
z
" clip-path="url(#p79fe3d44c3)" style="fill: #7f7f7f"/>
    <path d="M 325.760406 453.644646 
L 325.760406 377.595333 
L 327.158002 377.595333 
L 327.158002 453.644646 
z
" clip-path="url(#p79fe3d44c3)" style="fill: #7f7f7f"/>
    <path d="M 327.158002 453.644646 
L 327.158002 377.595333 
L 334.744956 377.595333 
L 334.744956 453.644646 
z
" clip-path="url(#p79fe3d44c3)" style="fill: #7f7f7f"/>
    <path d="M 334.744956 453.644646 
L 334.744956 377.595333 
L 584.515445 377.595333 
L 584.515445 453.644646 
z
" clip-path="url(#p79fe3d44c3)" style="fill: #f8766d"/>
    <path d="M 105.039962 369.145409 
L 105.039962 293.096096 
L 105.323187 293.096096 
L 105.323187 369.145409 
z
" clip-path="url(#p79fe3d44c3)" style="fill: #7f7f7f"/>
    <path d="M 105.323187 369.145409 
L 105.323187 293.096096 
L 106.044126 293.096096 
L 106.044126 369.145409 
z
" clip-path="url(#p79fe3d44c3)" style="fill: #7f7f7f"/>
    <path d="M 106.044126 369.145409 
L 106.044126 293.096096 
L 297.916712 293.096096 
L 297.916712 369.145409 
z
" clip-path="url(#p79fe3d44c3)" style="fill: #00bfc4"/>
    <path d="M 297.916712 369.145409 
L 297.916712 293.096096 
L 317.150317 293.096096 
L 317.150317 369.145409 
z
" clip-path="url(#p79fe3d44c3)" style="fill: #7f7f7f"/>
    <path d="M 317.150317 369.145409 
L 317.150317 293.096096 
L 317.999994 293.096096 
L 317.999994 369.145409 
z
" clip-path="url(#p79fe3d44c3)" style="fill: #7f7f7f"/>
    <path d="M 317.999994 369.145409 
L 317.999994 293.096096 
L 325.930315 293.096096 
L 325.930315 369.145409 
z
" clip-path="url(#p79fe3d44c3)" style="fill: #7f7f7f"/>
    <path d="M 325.930315 369.145409 
L 325.930315 293.096096 
L 348.382395 293.096096 
L 348.382395 369.145409 
z
" clip-path="url(#p79fe3d44c3)" style="fill: #7f7f7f"/>
    <path d="M 348.382395 369.145409 
L 348.382395 293.096096 
L 350.905679 293.096096 
L 350.905679 369.145409 
z
" clip-path="url(#p79fe3d44c3)" style="fill: #7f7f7f"/>
    <path d="M 350.905679 369.145409 
L 350.905679 293.096096 
L 354.433127 293.096096 
L 354.433127 369.145409 
z
" clip-path="url(#p79fe3d44c3)" style="fill: #7f7f7f"/>
    <path d="M 354.433127 369.145409 
L 354.433127 293.096096 
L 354.742101 293.096096 
L 354.742101 369.145409 
z
" clip-path="url(#p79fe3d44c3)" style="fill: #7f7f7f"/>
    <path d="M 354.742101 369.145409 
L 354.742101 293.096096 
L 358.063567 293.096096 
L 358.063567 369.145409 
z
" clip-path="url(#p79fe3d44c3)" style="fill: #7f7f7f"/>
    <path d="M 358.063567 369.145409 
L 358.063567 293.096096 
L 364.860985 293.096096 
L 364.860985 369.145409 
z
" clip-path="url(#p79fe3d44c3)" style="fill: #7f7f7f"/>
    <path d="M 364.860985 369.145409 
L 364.860985 293.096096 
L 365.015472 293.096096 
L 365.015472 369.145409 
z
" clip-path="url(#p79fe3d44c3)" style="fill: #7f7f7f"/>
    <path d="M 365.015472 369.145409 
L 365.015472 293.096096 
L 372.224855 293.096096 
L 372.224855 369.145409 
z
" clip-path="url(#p79fe3d44c3)" style="fill: #7f7f7f"/>
    <path d="M 372.224855 369.145409 
L 372.224855 293.096096 
L 584.515445 293.096096 
L 584.515445 369.145409 
z
" clip-path="url(#p79fe3d44c3)" style="fill: #f8766d"/>
    <path d="M 105.039962 284.646172 
L 105.039962 208.596859 
L 108.15784 208.596859 
L 108.15784 284.646172 
z
" clip-path="url(#p79fe3d44c3)" style="fill: #7f7f7f"/>
    <path d="M 108.15784 284.646172 
L 108.15784 208.596859 
L 397.171617 208.596859 
L 397.171617 284.646172 
z
" clip-path="url(#p79fe3d44c3)" style="fill: #00bfc4"/>
    <path d="M 397.171617 284.646172 
L 397.171617 208.596859 
L 398.391657 208.596859 
L 398.391657 284.646172 
z
" clip-path="url(#p79fe3d44c3)" style="fill: #7f7f7f"/>
    <path d="M 398.391657 284.646172 
L 398.391657 208.596859 
L 410.456491 208.596859 
L 410.456491 284.646172 
z
" clip-path="url(#p79fe3d44c3)" style="fill: #7f7f7f"/>
    <path d="M 410.456491 284.646172 
L 410.456491 208.596859 
L 412.08321 208.596859 
L 412.08321 284.646172 
z
" clip-path="url(#p79fe3d44c3)" style="fill: #7f7f7f"/>
    <path d="M 412.08321 284.646172 
L 412.08321 208.596859 
L 414.252169 208.596859 
L 414.252169 284.646172 
z
" clip-path="url(#p79fe3d44c3)" style="fill: #7f7f7f"/>
    <path d="M 414.252169 284.646172 
L 414.252169 208.596859 
L 474.169659 208.596859 
L 474.169659 284.646172 
z
" clip-path="url(#p79fe3d44c3)" style="fill: #7f7f7f"/>
    <path d="M 474.169659 284.646172 
L 474.169659 208.596859 
L 476.609738 208.596859 
L 476.609738 284.646172 
z
" clip-path="url(#p79fe3d44c3)" style="fill: #7f7f7f"/>
    <path d="M 476.609738 284.646172 
L 476.609738 208.596859 
L 478.507577 208.596859 
L 478.507577 284.646172 
z
" clip-path="url(#p79fe3d44c3)" style="fill: #7f7f7f"/>
    <path d="M 478.507577 284.646172 
L 478.507577 208.596859 
L 478.778697 208.596859 
L 478.778697 284.646172 
z
" clip-path="url(#p79fe3d44c3)" style="fill: #7f7f7f"/>
    <path d="M 478.778697 284.646172 
L 478.778697 208.596859 
L 494.639209 208.596859 
L 494.639209 284.646172 
z
" clip-path="url(#p79fe3d44c3)" style="fill: #7f7f7f"/>
    <path d="M 494.639209 284.646172 
L 494.639209 208.596859 
L 495.181449 208.596859 
L 495.181449 284.646172 
z
" clip-path="url(#p79fe3d44c3)" style="fill: #7f7f7f"/>
    <path d="M 495.181449 284.646172 
L 495.181449 208.596859 
L 497.079288 208.596859 
L 497.079288 284.646172 
z
" clip-path="url(#p79fe3d44c3)" style="fill: #7f7f7f"/>
    <path d="M 497.079288 284.646172 
L 497.079288 208.596859 
L 505.619564 208.596859 
L 505.619564 284.646172 
z
" clip-path="url(#p79fe3d44c3)" style="fill: #7f7f7f"/>
    <path d="M 505.619564 284.646172 
L 505.619564 208.596859 
L 584.515445 208.596859 
L 584.515445 284.646172 
z
" clip-path="url(#p79fe3d44c3)" style="fill: #f8766d"/>
    <path d="M 105.039962 200.146935 
L 105.039962 124.097622 
L 106.128359 124.097622 
L 106.128359 200.146935 
z
" clip-path="url(#p79fe3d44c3)" style="fill: #7f7f7f"/>
    <path d="M 106.128359 200.146935 
L 106.128359 124.097622 
L 107.760956 124.097622 
L 107.760956 200.146935 
z
" clip-path="url(#p79fe3d44c3)" style="fill: #7f7f7f"/>
    <path d="M 107.760956 200.146935 
L 107.760956 124.097622 
L 109.030753 124.097622 
L 109.030753 200.146935 
z
" clip-path="url(#p79fe3d44c3)" style="fill: #7f7f7f"/>
    <path d="M 109.030753 200.146935 
L 109.030753 124.097622 
L 294.167208 124.097622 
L 294.167208 200.146935 
z
" clip-path="url(#p79fe3d44c3)" style="fill: #00bfc4"/>
    <path d="M 294.167208 200.146935 
L 294.167208 124.097622 
L 333.893726 124.097622 
L 333.893726 200.146935 
z
" clip-path="url(#p79fe3d44c3)" style="fill: #7f7f7f"/>
    <path d="M 333.893726 200.146935 
L 333.893726 124.097622 
L 334.111405 124.097622 
L 334.111405 200.146935 
z
" clip-path="url(#p79fe3d44c3)" style="fill: #7f7f7f"/>
    <path d="M 334.111405 200.146935 
L 334.111405 124.097622 
L 341.69391 124.097622 
L 341.69391 200.146935 
z
" clip-path="url(#p79fe3d44c3)" style="fill: #7f7f7f"/>
    <path d="M 341.69391 200.146935 
L 341.69391 124.097622 
L 366.110299 124.097622 
L 366.110299 200.146935 
z
" clip-path="url(#p79fe3d44c3)" style="fill: #7f7f7f"/>
    <path d="M 366.110299 200.146935 
L 366.110299 124.097622 
L 371.008089 124.097622 
L 371.008089 200.146935 
z
" clip-path="url(#p79fe3d44c3)" style="fill: #7f7f7f"/>
    <path d="M 371.008089 200.146935 
L 371.008089 124.097622 
L 371.116928 124.097622 
L 371.116928 200.146935 
z
" clip-path="url(#p79fe3d44c3)" style="fill: #7f7f7f"/>
    <path d="M 371.116928 200.146935 
L 371.116928 124.097622 
L 373.583963 124.097622 
L 373.583963 200.146935 
z
" clip-path="url(#p79fe3d44c3)" style="fill: #7f7f7f"/>
    <path d="M 373.583963 200.146935 
L 373.583963 124.097622 
L 389.65597 124.097622 
L 389.65597 200.146935 
z
" clip-path="url(#p79fe3d44c3)" style="fill: #7f7f7f"/>
    <path d="M 389.65597 200.146935 
L 389.65597 124.097622 
L 393.175122 124.097622 
L 393.175122 200.146935 
z
" clip-path="url(#p79fe3d44c3)" style="fill: #7f7f7f"/>
    <path d="M 393.175122 200.146935 
L 393.175122 124.097622 
L 393.937001 124.097622 
L 393.937001 200.146935 
z
" clip-path="url(#p79fe3d44c3)" style="fill: #7f7f7f"/>
    <path d="M 393.937001 200.146935 
L 393.937001 124.097622 
L 426.081014 124.097622 
L 426.081014 200.146935 
z
" clip-path="url(#p79fe3d44c3)" style="fill: #7f7f7f"/>
    <path d="M 426.081014 200.146935 
L 426.081014 124.097622 
L 584.515445 124.097622 
L 584.515445 200.146935 
z
" clip-path="url(#p79fe3d44c3)" style="fill: #f8766d"/>
    <path d="M 105.039962 115.647699 
L 105.039962 39.598386 
L 106.249275 39.598386 
L 106.249275 115.647699 
z
" clip-path="url(#p79fe3d44c3)" style="fill: #7f7f7f"/>
    <path d="M 106.249275 115.647699 
L 106.249275 39.598386 
L 112.779567 39.598386 
L 112.779567 115.647699 
z
" clip-path="url(#p79fe3d44c3)" style="fill: #7f7f7f"/>
    <path d="M 112.779567 115.647699 
L 112.779567 39.598386 
L 198.813577 39.598386 
L 198.813577 115.647699 
z
" clip-path="url(#p79fe3d44c3)" style="fill: #00bfc4"/>
    <path d="M 198.813577 115.647699 
L 198.813577 39.598386 
L 199.020888 39.598386 
L 199.020888 115.647699 
z
" clip-path="url(#p79fe3d44c3)" style="fill: #7f7f7f"/>
    <path d="M 199.020888 115.647699 
L 199.020888 39.598386 
L 248.46453 39.598386 
L 248.46453 115.647699 
z
" clip-path="url(#p79fe3d44c3)" style="fill: #7f7f7f"/>
    <path d="M 248.46453 115.647699 
L 248.46453 39.598386 
L 248.982807 39.598386 
L 248.982807 115.647699 
z
" clip-path="url(#p79fe3d44c3)" style="fill: #7f7f7f"/>
    <path d="M 248.982807 115.647699 
L 248.982807 39.598386 
L 249.673843 39.598386 
L 249.673843 115.647699 
z
" clip-path="url(#p79fe3d44c3)" style="fill: #7f7f7f"/>
    <path d="M 249.673843 115.647699 
L 249.673843 39.598386 
L 292.310778 39.598386 
L 292.310778 115.647699 
z
" clip-path="url(#p79fe3d44c3)" style="fill: #7f7f7f"/>
    <path d="M 292.310778 115.647699 
L 292.310778 39.598386 
L 311.279722 39.598386 
L 311.279722 115.647699 
z
" clip-path="url(#p79fe3d44c3)" style="fill: #7f7f7f"/>
    <path d="M 311.279722 115.647699 
L 311.279722 39.598386 
L 312.730898 39.598386 
L 312.730898 115.647699 
z
" clip-path="url(#p79fe3d44c3)" style="fill: #7f7f7f"/>
    <path d="M 312.730898 115.647699 
L 312.730898 39.598386 
L 319.088432 39.598386 
L 319.088432 115.647699 
z
" clip-path="url(#p79fe3d44c3)" style="fill: #7f7f7f"/>
    <path d="M 319.088432 115.647699 
L 319.088432 39.598386 
L 338.990275 39.598386 
L 338.990275 115.647699 
z
" clip-path="url(#p79fe3d44c3)" style="fill: #7f7f7f"/>
    <path d="M 338.990275 115.647699 
L 338.990275 39.598386 
L 339.197586 39.598386 
L 339.197586 115.647699 
z
" clip-path="url(#p79fe3d44c3)" style="fill: #7f7f7f"/>
    <path d="M 339.197586 115.647699 
L 339.197586 39.598386 
L 358.581152 39.598386 
L 358.581152 115.647699 
z
" clip-path="url(#p79fe3d44c3)" style="fill: #7f7f7f"/>
    <path d="M 358.581152 115.647699 
L 358.581152 39.598386 
L 584.515445 39.598386 
L 584.515445 115.647699 
z
" clip-path="url(#p79fe3d44c3)" style="fill: #f8766d"/>
   </g>
  </g>
  <g id="patch_4">
   <path d="M 81.066188 466.319531 
L 608.489219 466.319531 
L 608.489219 26.9235 
L 81.066188 26.9235 
L 81.066188 466.319531 
z
" style="fill: none; stroke: #7f7f7f; stroke-linejoin: miter"/>
  </g>
  <g id="text_11">
   <text style="font-size: 13.2px; font-family: 'Helvetica', 'DejaVu Sans', 'Avant Garde', 'Computer Modern Sans serif', 'Arial', sans-serif; text-anchor: start" x="249.388109" y="16.803" transform="rotate(-0 249.388109 16.803)">% of each road type, by borough</text>
  </g>
  <g id="text_12">
   <text style="font-size: 11px; font-family: 'Helvetica', 'DejaVu Sans', 'Avant Garde', 'Computer Modern Sans serif', 'Arial', sans-serif; text-anchor: start" x="323.987703" y="494.507187" transform="rotate(-0 323.987703 494.507187)">pct_total</text>
  </g>
  <g id="text_13">
   <text style="font-size: 11px; font-family: 'Helvetica', 'DejaVu Sans', 'Avant Garde', 'Computer Modern Sans serif', 'Arial', sans-serif" transform="translate(15.116563 266.803937) rotate(-90)">borough</text>
  </g>
  <g id="patch_5">
   <path d="M 630.089219 270.901828 
L 712.8 270.901828 
L 712.8 222.341203 
L 630.089219 222.341203 
z
" style="fill: #ffffff"/>
  </g>
  <g id="text_14">
   <text style="font-size: 11px; font-family: 'Helvetica', 'DejaVu Sans', 'Avant Garde', 'Computer Modern Sans serif', 'Arial', sans-serif; text-anchor: start" x="631.089219" y="231.343703" transform="rotate(-0 631.089219 231.343703)">street_type_final</text>
  </g>
  <g id="patch_6">
   <path d="M 631.089219 252.061828 
L 646.929219 252.061828 
L 646.929219 236.221828 
L 631.089219 236.221828 
z
" clip-path="url(#p9907345fce)" style="fill: #ffffff"/>
  </g>
  <g id="patch_7">
   <path d="M 631.089219 252.061828 
L 646.929219 252.061828 
L 646.929219 236.221828 
L 631.089219 236.221828 
z
" clip-path="url(#p9907345fce)" style="fill: #f8766d"/>
  </g>
  <g id="text_15">
   <text style="font-size: 8.8px; font-family: 'Helvetica', 'DejaVu Sans', 'Avant Garde', 'Computer Modern Sans serif', 'Arial', sans-serif; text-anchor: middle" x="666.163281" y="246.381016" transform="rotate(-0 666.163281 246.381016)">avenue</text>
  </g>
  <g id="patch_8">
   <path d="M 631.089219 269.901828 
L 646.929219 269.901828 
L 646.929219 254.061828 
L 631.089219 254.061828 
z
" clip-path="url(#p17038488b6)" style="fill: #ffffff"/>
  </g>
  <g id="patch_9">
   <path d="M 631.089219 269.901828 
L 646.929219 269.901828 
L 646.929219 254.061828 
L 631.089219 254.061828 
z
" clip-path="url(#p17038488b6)" style="fill: #00bfc4"/>
  </g>
  <g id="text_16">
   <text style="font-size: 8.8px; font-family: 'Helvetica', 'DejaVu Sans', 'Avant Garde', 'Computer Modern Sans serif', 'Arial', sans-serif; text-anchor: middle" x="662.732656" y="264.221016" transform="rotate(-0 662.732656 264.221016)">street</text>
  </g>
 </g>
 <defs>
  <clipPath id="p79fe3d44c3">
   <rect x="81.066188" y="26.9235" width="527.423031" height="439.396031"/>
  </clipPath>
  <clipPath id="p9907345fce">
   <path d="M 631.089219 252.061828 
L 631.089219 236.221828 
L 646.929219 236.221828 
L 646.929219 252.061828 
"/>
  </clipPath>
  <clipPath id="p17038488b6">
   <path d="M 631.089219 269.901828 
L 631.089219 254.061828 
L 646.929219 254.061828 
L 646.929219 269.901828 
"/>
  </clipPath>
 </defs>
</svg>
